<?xml version="1.0" standalone="no"?>
<!DOCTYPE svg PUBLIC "-//W3C//DTD SVG 20010904//EN"
 "http://www.w3.org/TR/2001/REC-SVG-20010904/DTD/svg10.dtd">
<svg version="1.0" xmlns="http://www.w3.org/2000/svg"
 width="137.000000pt" height="137.000000pt" viewBox="0 0 137.000000 137.000000"
 preserveAspectRatio="xMidYMid meet">
<metadata>
Created by potrace 1.14, written by Peter Selinger 2001-2017
</metadata>
<g transform="translate(0.000000,137.000000) scale(0.100000,-0.100000)"
fill="#000000" stroke="none">
<path d="M986 1128 l-98 -100 -444 -1 -444 -1 0 -337 0 -337 63 0 c34 0 82 0
106 -1 l45 -1 -65 -64 -65 -64 38 -36 37 -37 102 102 102 102 443 0 444 0 0
79 0 78 58 0 57 0 -1 168 c-1 92 -2 173 -3 180 -1 8 -19 12 -56 12 l-55 0 0
79 0 79 -105 -2 c-58 0 -105 2 -105 6 0 4 8 13 18 20 9 8 37 35 61 60 l44 47
-24 26 c-47 50 -47 50 -153 -57z m139 -207 c20 -1 20 -8 20 -231 l0 -229 -280
-3 c-154 -2 -306 -2 -337 0 l-57 3 227 229 c252 253 229 239 362 233 25 -1 54
-2 65 -2z m-573 -230 c-185 -185 -235 -230 -258 -231 -16 -1 -65 -2 -109 -1
l-80 1 0 230 0 230 338 0 338 0 -229 -229z"/>
</g>
</svg>
