<svg id="visual" viewBox="0 0 960 60" width="960" height="60" xmlns="http://www.w3.org/2000/svg" xmlns:xlink="http://www.w3.org/1999/xlink" version="1.1"><rect x="0" y="0" width="960" height="60" fill="#181A1A"></rect><path d="M0 41L22.8 38.3C45.7 35.7 91.3 30.3 137 30.5C182.7 30.7 228.3 36.3 274 39.7C319.7 43 365.3 44 411.2 44.2C457 44.3 503 43.7 548.8 40.7C594.7 37.7 640.3 32.3 686 29.7C731.7 27 777.3 27 823 27.7C868.7 28.3 914.3 29.7 937.2 30.3L960 31L960 0L937.2 0C914.3 0 868.7 0 823 0C777.3 0 731.7 0 686 0C640.3 0 594.7 0 548.8 0C503 0 457 0 411.2 0C365.3 0 319.7 0 274 0C228.3 0 182.7 0 137 0C91.3 0 45.7 0 22.8 0L0 0Z" fill="#20332c"></path><path d="M0 28L22.8 28.8C45.7 29.7 91.3 31.3 137 29.5C182.7 27.7 228.3 22.3 274 21.7C319.7 21 365.3 25 411.2 25C457 25 503 21 548.8 19.7C594.7 18.3 640.3 19.7 686 20.3C731.7 21 777.3 21 823 22.3C868.7 23.7 914.3 26.3 937.2 27.7L960 29L960 0L937.2 0C914.3 0 868.7 0 823 0C777.3 0 731.7 0 686 0C640.3 0 594.7 0 548.8 0C503 0 457 0 411.2 0C365.3 0 319.7 0 274 0C228.3 0 182.7 0 137 0C91.3 0 45.7 0 22.8 0L0 0Z" fill="#273d33"></path><path d="M0 15L22.8 16.3C45.7 17.7 91.3 20.3 137 20.3C182.7 20.3 228.3 17.7 274 17.8C319.7 18 365.3 21 411.2 21.5C457 22 503 20 548.8 18.2C594.7 16.3 640.3 14.7 686 14.2C731.7 13.7 777.3 14.3 823 15.3C868.7 16.3 914.3 17.7 937.2 18.3L960 19L960 0L937.2 0C914.3 0 868.7 0 823 0C777.3 0 731.7 0 686 0C640.3 0 594.7 0 548.8 0C503 0 457 0 411.2 0C365.3 0 319.7 0 274 0C228.3 0 182.7 0 137 0C91.3 0 45.7 0 22.8 0L0 0Z" fill="#2f483a"></path><path d="M0 15L22.8 14C45.7 13 91.3 11 137 11.7C182.7 12.3 228.3 15.7 274 17.2C319.7 18.7 365.3 18.3 411.2 17.5C457 16.7 503 15.3 548.8 15C594.7 14.7 640.3 15.3 686 16.3C731.7 17.3 777.3 18.7 823 18.2C868.7 17.7 914.3 15.3 937.2 14.2L960 13L960 0L937.2 0C914.3 0 868.7 0 823 0C777.3 0 731.7 0 686 0C640.3 0 594.7 0 548.8 0C503 0 457 0 411.2 0C365.3 0 319.7 0 274 0C228.3 0 182.7 0 137 0C91.3 0 45.7 0 22.8 0L0 0Z" fill="#385340"></path><path d="M0 12L22.8 11.5C45.7 11 91.3 10 137 10C182.7 10 228.3 11 274 11.2C319.7 11.3 365.3 10.7 411.2 9.5C457 8.3 503 6.7 548.8 6.3C594.7 6 640.3 7 686 7.5C731.7 8 777.3 8 823 7.7C868.7 7.3 914.3 6.7 937.2 6.3L960 6L960 0L937.2 0C914.3 0 868.7 0 823 0C777.3 0 731.7 0 686 0C640.3 0 594.7 0 548.8 0C503 0 457 0 411.2 0C365.3 0 319.7 0 274 0C228.3 0 182.7 0 137 0C91.3 0 45.7 0 22.8 0L0 0Z" fill="#425e46"></path></svg>