<svg id="visual" viewBox="0 0 960 60" width="960" height="60" xmlns="http://www.w3.org/2000/svg" xmlns:xlink="http://www.w3.org/1999/xlink" version="1.1"><rect x="0" y="0" width="960" height="60" fill="#181A1A"></rect><path d="M0 35L22.8 36.7C45.7 38.3 91.3 41.7 137 40.7C182.7 39.7 228.3 34.3 274 32.7C319.7 31 365.3 33 411.2 35C457 37 503 39 548.8 40C594.7 41 640.3 41 686 41.8C731.7 42.7 777.3 44.3 823 44.5C868.7 44.7 914.3 43.3 937.2 42.7L960 42L960 0L937.2 0C914.3 0 868.7 0 823 0C777.3 0 731.7 0 686 0C640.3 0 594.7 0 548.8 0C503 0 457 0 411.2 0C365.3 0 319.7 0 274 0C228.3 0 182.7 0 137 0C91.3 0 45.7 0 22.8 0L0 0Z" fill="#20332c"></path><path d="M0 37L22.8 36.5C45.7 36 91.3 35 137 32.3C182.7 29.7 228.3 25.3 274 24.5C319.7 23.7 365.3 26.3 411.2 28.3C457 30.3 503 31.7 548.8 30.5C594.7 29.3 640.3 25.7 686 24C731.7 22.3 777.3 22.7 823 24C868.7 25.3 914.3 27.7 937.2 28.8L960 30L960 0L937.2 0C914.3 0 868.7 0 823 0C777.3 0 731.7 0 686 0C640.3 0 594.7 0 548.8 0C503 0 457 0 411.2 0C365.3 0 319.7 0 274 0C228.3 0 182.7 0 137 0C91.3 0 45.7 0 22.8 0L0 0Z" fill="#273d33"></path><path d="M0 13L22.8 14C45.7 15 91.3 17 137 19.8C182.7 22.7 228.3 26.3 274 25.7C319.7 25 365.3 20 411.2 18.3C457 16.7 503 18.3 548.8 17.8C594.7 17.3 640.3 14.7 686 13.8C731.7 13 777.3 14 823 15.2C868.7 16.3 914.3 17.7 937.2 18.3L960 19L960 0L937.2 0C914.3 0 868.7 0 823 0C777.3 0 731.7 0 686 0C640.3 0 594.7 0 548.8 0C503 0 457 0 411.2 0C365.3 0 319.7 0 274 0C228.3 0 182.7 0 137 0C91.3 0 45.7 0 22.8 0L0 0Z" fill="#2f483a"></path><path d="M0 16L22.8 16.3C45.7 16.7 91.3 17.3 137 16C182.7 14.7 228.3 11.3 274 10C319.7 8.7 365.3 9.3 411.2 11.3C457 13.3 503 16.7 548.8 18.3C594.7 20 640.3 20 686 18.5C731.7 17 777.3 14 823 13C868.7 12 914.3 13 937.2 13.5L960 14L960 0L937.2 0C914.3 0 868.7 0 823 0C777.3 0 731.7 0 686 0C640.3 0 594.7 0 548.8 0C503 0 457 0 411.2 0C365.3 0 319.7 0 274 0C228.3 0 182.7 0 137 0C91.3 0 45.7 0 22.8 0L0 0Z" fill="#385340"></path><path d="M0 7L22.8 7.7C45.7 8.3 91.3 9.7 137 9.7C182.7 9.7 228.3 8.3 274 8.7C319.7 9 365.3 11 411.2 11C457 11 503 9 548.8 8C594.7 7 640.3 7 686 7.3C731.7 7.7 777.3 8.3 823 8.8C868.7 9.3 914.3 9.7 937.2 9.8L960 10L960 0L937.2 0C914.3 0 868.7 0 823 0C777.3 0 731.7 0 686 0C640.3 0 594.7 0 548.8 0C503 0 457 0 411.2 0C365.3 0 319.7 0 274 0C228.3 0 182.7 0 137 0C91.3 0 45.7 0 22.8 0L0 0Z" fill="#425e46"></path></svg>