<svg id="visual" viewBox="0 0 960 60" width="960" height="60" xmlns="http://www.w3.org/2000/svg" xmlns:xlink="http://www.w3.org/1999/xlink" version="1.1"><rect x="0" y="0" width="960" height="60" fill="#181A1A"></rect><path d="M0 37L22.8 38.3C45.7 39.7 91.3 42.3 137 40.8C182.7 39.3 228.3 33.7 274 31.5C319.7 29.3 365.3 30.7 411.2 31.3C457 32 503 32 548.8 32C594.7 32 640.3 32 686 31.3C731.7 30.7 777.3 29.3 823 29.7C868.7 30 914.3 32 937.2 33L960 34L960 0L937.2 0C914.3 0 868.7 0 823 0C777.3 0 731.7 0 686 0C640.3 0 594.7 0 548.8 0C503 0 457 0 411.2 0C365.3 0 319.7 0 274 0C228.3 0 182.7 0 137 0C91.3 0 45.7 0 22.8 0L0 0Z" fill="#425e46"></path><path d="M0 27L22.8 28C45.7 29 91.3 31 137 30C182.7 29 228.3 25 274 22.3C319.7 19.7 365.3 18.3 411.2 17.7C457 17 503 17 548.8 19C594.7 21 640.3 25 686 25.8C731.7 26.7 777.3 24.3 823 24.5C868.7 24.7 914.3 27.3 937.2 28.7L960 30L960 0L937.2 0C914.3 0 868.7 0 823 0C777.3 0 731.7 0 686 0C640.3 0 594.7 0 548.8 0C503 0 457 0 411.2 0C365.3 0 319.7 0 274 0C228.3 0 182.7 0 137 0C91.3 0 45.7 0 22.8 0L0 0Z" fill="#385340"></path><path d="M0 17L22.8 17.3C45.7 17.7 91.3 18.3 137 18.8C182.7 19.3 228.3 19.7 274 20.2C319.7 20.7 365.3 21.3 411.2 20.5C457 19.7 503 17.3 548.8 17C594.7 16.7 640.3 18.3 686 19.8C731.7 21.3 777.3 22.7 823 22.5C868.7 22.3 914.3 20.7 937.2 19.8L960 19L960 0L937.2 0C914.3 0 868.7 0 823 0C777.3 0 731.7 0 686 0C640.3 0 594.7 0 548.8 0C503 0 457 0 411.2 0C365.3 0 319.7 0 274 0C228.3 0 182.7 0 137 0C91.3 0 45.7 0 22.8 0L0 0Z" fill="#2f483a"></path><path d="M0 18L22.8 17.8C45.7 17.7 91.3 17.3 137 16.7C182.7 16 228.3 15 274 14.2C319.7 13.3 365.3 12.7 411.2 11.8C457 11 503 10 548.8 10.3C594.7 10.7 640.3 12.3 686 13.2C731.7 14 777.3 14 823 14.8C868.7 15.7 914.3 17.3 937.2 18.2L960 19L960 0L937.2 0C914.3 0 868.7 0 823 0C777.3 0 731.7 0 686 0C640.3 0 594.7 0 548.8 0C503 0 457 0 411.2 0C365.3 0 319.7 0 274 0C228.3 0 182.7 0 137 0C91.3 0 45.7 0 22.8 0L0 0Z" fill="#273d33"></path><path d="M0 10L22.8 10C45.7 10 91.3 10 137 9.5C182.7 9 228.3 8 274 8.2C319.7 8.3 365.3 9.7 411.2 9.5C457 9.3 503 7.7 548.8 8C594.7 8.3 640.3 10.7 686 11.5C731.7 12.3 777.3 11.7 823 10.7C868.7 9.7 914.3 8.3 937.2 7.7L960 7L960 0L937.2 0C914.3 0 868.7 0 823 0C777.3 0 731.7 0 686 0C640.3 0 594.7 0 548.8 0C503 0 457 0 411.2 0C365.3 0 319.7 0 274 0C228.3 0 182.7 0 137 0C91.3 0 45.7 0 22.8 0L0 0Z" fill="#20332c"></path></svg>